<?xml version="1.0" standalone="no"?>
<svg viewBox="0 0 200 200" xmlns="http://www.w3.org/2000/svg">
  <path fill="#FF0066" d="M37.3,-65.9C49,-57.8,59.5,-49.1,67.8,-38.1C76.1,-27,82.1,-13.5,77.2,-2.8C72.3,7.8,56.6,15.7,45.2,21.4C33.8,27.1,26.8,30.7,20,38.1C13.2,45.4,6.6,56.6,2.6,52.2C-1.5,47.7,-3,27.7,-16.2,24.1C-29.5,20.4,-54.5,33.2,-66.7,31.9C-78.9,30.6,-78.3,15.3,-76.6,1C-75,-13.3,-72.2,-26.7,-64.7,-36.2C-57.3,-45.8,-45.2,-51.5,-33.6,-59.7C-22,-67.9,-11,-78.5,0.9,-80.1C12.8,-81.6,25.6,-74.1,37.3,-65.9Z" transform="translate(100 100)" />
</svg>
